<?xml version="1.0" encoding="UTF-8"?>
<!DOCTYPE svg PUBLIC "-//W3C//DTD SVG 1.1//EN"
    "http://www.w3.org/Graphics/SVG/1.1/DTD/svg11.dtd"><svg xmlns="http://www.w3.org/2000/svg" height="400.0000" stroke-opacity="1" viewBox="0 0 742 400" font-size="1" width="741.5039" xmlns:xlink="http://www.w3.org/1999/xlink" stroke="rgb(0,0,0)" version="1.1"><defs></defs><g stroke-linejoin="miter" stroke-opacity="1.0" fill-opacity="1.0" stroke="rgb(0,0,0)" stroke-width="0.0" fill="rgb(255,255,0)" stroke-linecap="butt" stroke-miterlimit="10.0"><path d="M 695.1599,307.3120 c -8.5317,-0.0000 -15.4480,6.9163 -15.4480 15.4480c -0.0000,8.5317 6.9163,15.4480 15.4480 15.4480c 8.5317,0.0000 15.4480,-6.9163 15.4480 -15.4480c 0.0000,-8.5317 -6.9163,-15.4480 -15.4480 -15.4480Z"/></g><g stroke-linejoin="miter" stroke-opacity="1.0" fill-opacity="1.0" stroke="rgb(0,0,0)" stroke-width="0.0" fill="rgb(255,255,0)" stroke-linecap="butt" stroke-miterlimit="10.0"><path d="M 710.6079,322.7600 l -30.8960,0.0000 l -0.0000,30.8960 l 30.8960,0.0000 Z"/></g><g stroke-linejoin="miter" stroke-opacity="1.0" fill-opacity="1.0" stroke="rgb(0,0,0)" stroke-width="0.0" fill="rgb(255,255,0)" stroke-linecap="butt" stroke-miterlimit="10.0"><path d="M 710.6079,353.6560 l -30.8960,0.0000 l -0.0000,30.8960 l 30.8960,0.0000 Z"/></g><g stroke-linejoin="miter" stroke-opacity="1.0" fill-opacity="1.0" stroke="rgb(0,0,0)" stroke-width="0.0" fill="rgb(255,255,0)" stroke-linecap="butt" stroke-miterlimit="10.0"><path d="M 695.1599,369.1040 c -8.5317,-0.0000 -15.4480,6.9163 -15.4480 15.4480c -0.0000,8.5317 6.9163,15.4480 15.4480 15.4480c 8.5317,0.0000 15.4480,-6.9163 15.4480 -15.4480c 0.0000,-8.5317 -6.9163,-15.4480 -15.4480 -15.4480Z"/></g><g stroke-linejoin="miter" stroke-opacity="1.0" fill-opacity="1.0" stroke="rgb(0,0,0)" stroke-width="0.0" fill="rgb(255,255,0)" stroke-linecap="butt" stroke-miterlimit="10.0"><path d="M 583.9343,307.3120 c -8.5317,-0.0000 -15.4480,6.9163 -15.4480 15.4480c -0.0000,8.5317 6.9163,15.4480 15.4480 15.4480c 8.5317,0.0000 15.4480,-6.9163 15.4480 -15.4480c 0.0000,-8.5317 -6.9163,-15.4480 -15.4480 -15.4480Z"/></g><g stroke-linejoin="miter" stroke-opacity="1.0" fill-opacity="1.0" stroke="rgb(0,0,0)" stroke-width="0.0" fill="rgb(255,255,0)" stroke-linecap="butt" stroke-miterlimit="10.0"><path d="M 599.3823,322.7600 l -30.8960,0.0000 l -0.0000,30.8960 l 30.8960,0.0000 Z"/></g><g stroke-linejoin="miter" stroke-opacity="1.0" fill-opacity="1.0" stroke="rgb(0,0,0)" stroke-width="0.0" fill="rgb(255,0,0)" stroke-linecap="butt" stroke-miterlimit="10.0"><path d="M 599.3823,353.6560 l -30.8960,0.0000 l -0.0000,30.8960 l 30.8960,0.0000 Z"/></g><g stroke-linejoin="miter" stroke-opacity="1.0" fill-opacity="1.0" stroke="rgb(0,0,0)" stroke-width="0.0" fill="rgb(255,0,0)" stroke-linecap="butt" stroke-miterlimit="10.0"><path d="M 583.9343,369.1040 c -8.5317,-0.0000 -15.4480,6.9163 -15.4480 15.4480c -0.0000,8.5317 6.9163,15.4480 15.4480 15.4480c 8.5317,0.0000 15.4480,-6.9163 15.4480 -15.4480c 0.0000,-8.5317 -6.9163,-15.4480 -15.4480 -15.4480Z"/></g><g stroke-linejoin="miter" stroke-opacity="1.0" fill-opacity="1.0" stroke="rgb(0,0,0)" stroke-width="0.0" fill="rgb(0,0,255)" stroke-linecap="butt" stroke-miterlimit="10.0"><path d="M 472.7087,307.3120 c -8.5317,-0.0000 -15.4480,6.9163 -15.4480 15.4480c -0.0000,8.5317 6.9163,15.4480 15.4480 15.4480c 8.5317,0.0000 15.4480,-6.9163 15.4480 -15.4480c 0.0000,-8.5317 -6.9163,-15.4480 -15.4480 -15.4480Z"/></g><g stroke-linejoin="miter" stroke-opacity="1.0" fill-opacity="1.0" stroke="rgb(0,0,0)" stroke-width="0.0" fill="rgb(0,0,255)" stroke-linecap="butt" stroke-miterlimit="10.0"><path d="M 488.1567,322.7600 l -30.8960,0.0000 l -0.0000,30.8960 l 30.8960,0.0000 Z"/></g><g stroke-linejoin="miter" stroke-opacity="1.0" fill-opacity="1.0" stroke="rgb(0,0,0)" stroke-width="0.0" fill="rgb(255,255,0)" stroke-linecap="butt" stroke-miterlimit="10.0"><path d="M 488.1567,353.6560 l -30.8960,0.0000 l -0.0000,30.8960 l 30.8960,0.0000 Z"/></g><g stroke-linejoin="miter" stroke-opacity="1.0" fill-opacity="1.0" stroke="rgb(0,0,0)" stroke-width="0.0" fill="rgb(255,255,0)" stroke-linecap="butt" stroke-miterlimit="10.0"><path d="M 472.7087,369.1040 c -8.5317,-0.0000 -15.4480,6.9163 -15.4480 15.4480c -0.0000,8.5317 6.9163,15.4480 15.4480 15.4480c 8.5317,0.0000 15.4480,-6.9163 15.4480 -15.4480c 0.0000,-8.5317 -6.9163,-15.4480 -15.4480 -15.4480Z"/></g><g stroke-linejoin="miter" stroke-opacity="1.0" fill-opacity="1.0" stroke="rgb(0,0,0)" stroke-width="0.0" fill="rgb(255,0,0)" stroke-linecap="butt" stroke-miterlimit="10.0"><path d="M 361.4831,307.3120 c -8.5317,-0.0000 -15.4480,6.9163 -15.4480 15.4480c -0.0000,8.5317 6.9163,15.4480 15.4480 15.4480c 8.5317,0.0000 15.4480,-6.9163 15.4480 -15.4480c 0.0000,-8.5317 -6.9163,-15.4480 -15.4480 -15.4480Z"/></g><g stroke-linejoin="miter" stroke-opacity="1.0" fill-opacity="1.0" stroke="rgb(0,0,0)" stroke-width="0.0" fill="rgb(255,0,0)" stroke-linecap="butt" stroke-miterlimit="10.0"><path d="M 376.9311,322.7600 l -30.8960,0.0000 l -0.0000,30.8960 l 30.8960,0.0000 Z"/></g><g stroke-linejoin="miter" stroke-opacity="1.0" fill-opacity="1.0" stroke="rgb(0,0,0)" stroke-width="0.0" fill="rgb(255,0,0)" stroke-linecap="butt" stroke-miterlimit="10.0"><path d="M 376.9311,353.6560 l -30.8960,0.0000 l -0.0000,30.8960 l 30.8960,0.0000 Z"/></g><g stroke-linejoin="miter" stroke-opacity="1.0" fill-opacity="1.0" stroke="rgb(0,0,0)" stroke-width="0.0" fill="rgb(255,0,0)" stroke-linecap="butt" stroke-miterlimit="10.0"><path d="M 361.4831,369.1040 c -8.5317,-0.0000 -15.4480,6.9163 -15.4480 15.4480c -0.0000,8.5317 6.9163,15.4480 15.4480 15.4480c 8.5317,0.0000 15.4480,-6.9163 15.4480 -15.4480c 0.0000,-8.5317 -6.9163,-15.4480 -15.4480 -15.4480Z"/></g><g stroke-linejoin="miter" stroke-opacity="1.0" fill-opacity="1.0" stroke="rgb(0,0,0)" stroke-width="0.0" fill="rgb(0,0,255)" stroke-linecap="butt" stroke-miterlimit="10.0"><path d="M 250.2576,307.3120 c -8.5317,-0.0000 -15.4480,6.9163 -15.4480 15.4480c -0.0000,8.5317 6.9163,15.4480 15.4480 15.4480c 8.5317,0.0000 15.4480,-6.9163 15.4480 -15.4480c 0.0000,-8.5317 -6.9163,-15.4480 -15.4480 -15.4480Z"/></g><g stroke-linejoin="miter" stroke-opacity="1.0" fill-opacity="1.0" stroke="rgb(0,0,0)" stroke-width="0.0" fill="rgb(0,0,255)" stroke-linecap="butt" stroke-miterlimit="10.0"><path d="M 265.7056,322.7600 l -30.8960,0.0000 l -0.0000,30.8960 l 30.8960,0.0000 Z"/></g><g stroke-linejoin="miter" stroke-opacity="1.0" fill-opacity="1.0" stroke="rgb(0,0,0)" stroke-width="0.0" fill="rgb(255,0,0)" stroke-linecap="butt" stroke-miterlimit="10.0"><path d="M 265.7056,353.6560 l -30.8960,0.0000 l -0.0000,30.8960 l 30.8960,0.0000 Z"/></g><g stroke-linejoin="miter" stroke-opacity="1.0" fill-opacity="1.0" stroke="rgb(0,0,0)" stroke-width="0.0" fill="rgb(255,0,0)" stroke-linecap="butt" stroke-miterlimit="10.0"><path d="M 250.2576,369.1040 c -8.5317,-0.0000 -15.4480,6.9163 -15.4480 15.4480c -0.0000,8.5317 6.9163,15.4480 15.4480 15.4480c 8.5317,0.0000 15.4480,-6.9163 15.4480 -15.4480c 0.0000,-8.5317 -6.9163,-15.4480 -15.4480 -15.4480Z"/></g><g stroke-linejoin="miter" stroke-opacity="1.0" fill-opacity="1.0" stroke="rgb(0,0,0)" stroke-width="0.0" fill="rgb(0,0,255)" stroke-linecap="butt" stroke-miterlimit="10.0"><path d="M 139.0320,307.3120 c -8.5317,-0.0000 -15.4480,6.9163 -15.4480 15.4480c -0.0000,8.5317 6.9163,15.4480 15.4480 15.4480c 8.5317,0.0000 15.4480,-6.9163 15.4480 -15.4480c 0.0000,-8.5317 -6.9163,-15.4480 -15.4480 -15.4480Z"/></g><g stroke-linejoin="miter" stroke-opacity="1.0" fill-opacity="1.0" stroke="rgb(0,0,0)" stroke-width="0.0" fill="rgb(0,0,255)" stroke-linecap="butt" stroke-miterlimit="10.0"><path d="M 154.4800,322.7600 l -30.8960,0.0000 l -0.0000,30.8960 l 30.8960,0.0000 Z"/></g><g stroke-linejoin="miter" stroke-opacity="1.0" fill-opacity="1.0" stroke="rgb(0,0,0)" stroke-width="0.0" fill="rgb(0,0,255)" stroke-linecap="butt" stroke-miterlimit="10.0"><path d="M 154.4800,353.6560 l -30.8960,0.0000 l -0.0000,30.8960 l 30.8960,0.0000 Z"/></g><g stroke-linejoin="miter" stroke-opacity="1.0" fill-opacity="1.0" stroke="rgb(0,0,0)" stroke-width="0.0" fill="rgb(0,0,255)" stroke-linecap="butt" stroke-miterlimit="10.0"><path d="M 139.0320,369.1040 c -8.5317,-0.0000 -15.4480,6.9163 -15.4480 15.4480c -0.0000,8.5317 6.9163,15.4480 15.4480 15.4480c 8.5317,0.0000 15.4480,-6.9163 15.4480 -15.4480c 0.0000,-8.5317 -6.9163,-15.4480 -15.4480 -15.4480Z"/></g><g stroke-linejoin="miter" stroke-opacity="1.0" fill-opacity="1.0" font-size="27.806395901140274px" stroke="rgb(0,0,0)" stroke-width="2.178445523868172" fill="rgb(0,0,0)" stroke-linecap="butt" stroke-miterlimit="10.0"><text dominant-baseline="middle" transform="matrix(1.0000,0.0000,0.0000,1.0000,695.1599,302.6776)" stroke="none" text-anchor="middle">1.13</text></g><g stroke-linejoin="miter" stroke-opacity="1.0" fill-opacity="1.0" font-size="27.806395901140274px" stroke="rgb(0,0,0)" stroke-width="2.178445523868172" fill="rgb(0,0,0)" stroke-linecap="butt" stroke-miterlimit="10.0"><text dominant-baseline="middle" transform="matrix(1.0000,0.0000,0.0000,1.0000,583.9343,302.6776)" stroke="none" text-anchor="middle">1.03</text></g><g stroke-linejoin="miter" stroke-opacity="1.0" fill-opacity="1.0" font-size="27.806395901140274px" stroke="rgb(0,0,0)" stroke-width="2.178445523868172" fill="rgb(0,0,0)" stroke-linecap="butt" stroke-miterlimit="10.0"><text dominant-baseline="middle" transform="matrix(1.0000,0.0000,0.0000,1.0000,472.7087,302.6776)" stroke="none" text-anchor="middle">1.03</text></g><g stroke-linejoin="miter" stroke-opacity="1.0" fill-opacity="1.0" font-size="27.806395901140274px" stroke="rgb(0,0,0)" stroke-width="2.178445523868172" fill="rgb(0,0,0)" stroke-linecap="butt" stroke-miterlimit="10.0"><text dominant-baseline="middle" transform="matrix(1.0000,0.0000,0.0000,1.0000,361.4831,302.6776)" stroke="none" text-anchor="middle">0.94</text></g><g stroke-linejoin="miter" stroke-opacity="1.0" fill-opacity="1.0" font-size="27.806395901140274px" stroke="rgb(0,0,0)" stroke-width="2.178445523868172" fill="rgb(0,0,0)" stroke-linecap="butt" stroke-miterlimit="10.0"><text dominant-baseline="middle" transform="matrix(1.0000,0.0000,0.0000,1.0000,250.2576,302.6776)" stroke="none" text-anchor="middle">0.93</text></g><g stroke-linejoin="miter" stroke-opacity="1.0" fill-opacity="1.0" font-size="27.806395901140274px" stroke="rgb(0,0,0)" stroke-width="2.178445523868172" fill="rgb(0,0,0)" stroke-linecap="butt" stroke-miterlimit="10.0"><text dominant-baseline="middle" transform="matrix(1.0000,0.0000,0.0000,1.0000,139.0320,302.6776)" stroke="none" text-anchor="middle">0.93</text></g><g stroke-linejoin="miter" stroke-opacity="1.0" fill-opacity="0.0" stroke="rgb(128,128,128)" stroke-width="2.178445523868172" fill="rgb(0,0,0)" stroke-linecap="butt" stroke-miterlimit="10.0"><path d="M 92.6880,274.8712 h 648.8159 "/></g><g stroke-linejoin="miter" stroke-opacity="1.0" fill-opacity="0.0" stroke="rgb(128,128,128)" stroke-width="2.178445523868172" fill="rgb(0,0,0)" stroke-linecap="butt" stroke-miterlimit="10.0"><path d="M 92.6880,246.9046 h 648.8159 "/></g><g stroke-linejoin="miter" stroke-opacity="1.0" fill-opacity="0.0" stroke="rgb(128,128,128)" stroke-width="2.178445523868172" fill="rgb(0,0,0)" stroke-linecap="butt" stroke-miterlimit="10.0"><path d="M 92.6880,218.9381 h 648.8159 "/></g><g stroke-linejoin="miter" stroke-opacity="1.0" fill-opacity="0.0" stroke="rgb(128,128,128)" stroke-width="2.178445523868172" fill="rgb(0,0,0)" stroke-linecap="butt" stroke-miterlimit="10.0"><path d="M 92.6880,190.9715 h 648.8159 "/></g><g stroke-linejoin="miter" stroke-opacity="1.0" fill-opacity="0.0" stroke="rgb(128,128,128)" stroke-width="2.178445523868172" fill="rgb(0,0,0)" stroke-linecap="butt" stroke-miterlimit="10.0"><path d="M 92.6880,23.1720 h 648.8159 "/></g><g stroke-linejoin="miter" stroke-opacity="1.0" fill-opacity="0.0" stroke="rgb(128,128,128)" stroke-width="2.178445523868172" fill="rgb(0,0,0)" stroke-linecap="butt" stroke-miterlimit="10.0"><path d="M 92.6880,51.1386 h 648.8159 "/></g><g stroke-linejoin="miter" stroke-opacity="1.0" fill-opacity="0.0" stroke="rgb(128,128,128)" stroke-width="2.178445523868172" fill="rgb(0,0,0)" stroke-linecap="butt" stroke-miterlimit="10.0"><path d="M 92.6880,79.1052 h 648.8159 "/></g><g stroke-linejoin="miter" stroke-opacity="1.0" fill-opacity="0.0" stroke="rgb(128,128,128)" stroke-width="2.178445523868172" fill="rgb(0,0,0)" stroke-linecap="butt" stroke-miterlimit="10.0"><path d="M 92.6880,107.0717 h 648.8159 "/></g><g stroke-linejoin="miter" stroke-opacity="1.0" fill-opacity="0.0" stroke="rgb(128,128,128)" stroke-width="2.178445523868172" fill="rgb(0,0,0)" stroke-linecap="butt" stroke-miterlimit="10.0"><path d="M 92.6880,135.0383 h 648.8159 "/></g><g stroke-linejoin="miter" stroke-opacity="1.0" fill-opacity="0.0" stroke="rgb(128,128,128)" stroke-width="2.178445523868172" fill="rgb(0,0,0)" stroke-linecap="butt" stroke-miterlimit="10.0"><path d="M 92.6880,163.0049 h 648.8159 "/></g><g stroke-linejoin="miter" stroke-opacity="1.0" fill-opacity="1.0" stroke="rgb(0,0,0)" stroke-width="2.178445523868172" fill="rgb(255,255,255)" stroke-linecap="butt" stroke-miterlimit="10.0"><path d="M 741.5039,163.0049 l -0.0000,-118.0273 h -92.6880 l -0.0000,118.0273 Z"/></g><g stroke-linejoin="miter" stroke-opacity="1.0" fill-opacity="1.0" stroke="rgb(0,0,0)" stroke-width="2.178445523868172" fill="rgb(255,255,255)" stroke-linecap="butt" stroke-miterlimit="10.0"><path d="M 630.2783,163.0049 l -0.0000,-32.0169 h -92.6880 l -0.0000,32.0169 Z"/></g><g stroke-linejoin="miter" stroke-opacity="1.0" fill-opacity="1.0" stroke="rgb(0,0,0)" stroke-width="2.178445523868172" fill="rgb(255,255,255)" stroke-linecap="butt" stroke-miterlimit="10.0"><path d="M 519.0527,163.0049 l -0.0000,-30.6206 h -92.6880 l -0.0000,30.6206 Z"/></g><g stroke-linejoin="miter" stroke-opacity="1.0" fill-opacity="1.0" stroke="rgb(0,0,0)" stroke-width="2.178445523868172" fill="rgb(255,255,255)" stroke-linecap="butt" stroke-miterlimit="10.0"><path d="M 407.8271,163.0049 l -0.0000,62.4499 h -92.6880 l -0.0000,-62.4499 Z"/></g><g stroke-linejoin="miter" stroke-opacity="1.0" fill-opacity="1.0" stroke="rgb(0,0,0)" stroke-width="2.178445523868172" fill="rgb(255,255,255)" stroke-linecap="butt" stroke-miterlimit="10.0"><path d="M 296.6016,163.0049 l -0.0000,66.1027 h -92.6880 l -0.0000,-66.1027 Z"/></g><g stroke-linejoin="miter" stroke-opacity="1.0" fill-opacity="1.0" stroke="rgb(0,0,0)" stroke-width="2.178445523868172" fill="rgb(255,255,255)" stroke-linecap="butt" stroke-miterlimit="10.0"><path d="M 185.3760,163.0049 l -0.0000,66.7428 h -92.6880 l -0.0000,-66.7428 Z"/></g><g stroke-linejoin="miter" stroke-opacity="1.0" fill-opacity="1.0" font-size="27.806395901140274px" stroke="rgb(0,0,0)" stroke-width="2.178445523868172" fill="rgb(0,0,0)" stroke-linecap="butt" stroke-miterlimit="10.0"><text dominant-baseline="middle" transform="matrix(1.0000,0.0000,0.0000,1.0000,46.3440,274.8712)" stroke="none" text-anchor="middle">0.89</text></g><g stroke-linejoin="miter" stroke-opacity="1.0" fill-opacity="1.0" font-size="27.806395901140274px" stroke="rgb(0,0,0)" stroke-width="2.178445523868172" fill="rgb(0,0,0)" stroke-linecap="butt" stroke-miterlimit="10.0"><text dominant-baseline="middle" transform="matrix(1.0000,0.0000,0.0000,1.0000,46.3440,246.9046)" stroke="none" text-anchor="middle">0.92</text></g><g stroke-linejoin="miter" stroke-opacity="1.0" fill-opacity="1.0" font-size="27.806395901140274px" stroke="rgb(0,0,0)" stroke-width="2.178445523868172" fill="rgb(0,0,0)" stroke-linecap="butt" stroke-miterlimit="10.0"><text dominant-baseline="middle" transform="matrix(1.0000,0.0000,0.0000,1.0000,46.3440,218.9381)" stroke="none" text-anchor="middle">0.94</text></g><g stroke-linejoin="miter" stroke-opacity="1.0" fill-opacity="1.0" font-size="27.806395901140274px" stroke="rgb(0,0,0)" stroke-width="2.178445523868172" fill="rgb(0,0,0)" stroke-linecap="butt" stroke-miterlimit="10.0"><text dominant-baseline="middle" transform="matrix(1.0000,0.0000,0.0000,1.0000,46.3440,190.9715)" stroke="none" text-anchor="middle">0.97</text></g><g stroke-linejoin="miter" stroke-opacity="1.0" fill-opacity="1.0" font-size="27.806395901140274px" stroke="rgb(0,0,0)" stroke-width="2.178445523868172" fill="rgb(0,0,0)" stroke-linecap="butt" stroke-miterlimit="10.0"><text dominant-baseline="middle" transform="matrix(1.0000,0.0000,0.0000,1.0000,46.3440,23.1720)" stroke="none" text-anchor="middle">1.15</text></g><g stroke-linejoin="miter" stroke-opacity="1.0" fill-opacity="1.0" font-size="27.806395901140274px" stroke="rgb(0,0,0)" stroke-width="2.178445523868172" fill="rgb(0,0,0)" stroke-linecap="butt" stroke-miterlimit="10.0"><text dominant-baseline="middle" transform="matrix(1.0000,0.0000,0.0000,1.0000,46.3440,51.1386)" stroke="none" text-anchor="middle">1.12</text></g><g stroke-linejoin="miter" stroke-opacity="1.0" fill-opacity="1.0" font-size="27.806395901140274px" stroke="rgb(0,0,0)" stroke-width="2.178445523868172" fill="rgb(0,0,0)" stroke-linecap="butt" stroke-miterlimit="10.0"><text dominant-baseline="middle" transform="matrix(1.0000,0.0000,0.0000,1.0000,46.3440,79.1052)" stroke="none" text-anchor="middle">1.09</text></g><g stroke-linejoin="miter" stroke-opacity="1.0" fill-opacity="1.0" font-size="27.806395901140274px" stroke="rgb(0,0,0)" stroke-width="2.178445523868172" fill="rgb(0,0,0)" stroke-linecap="butt" stroke-miterlimit="10.0"><text dominant-baseline="middle" transform="matrix(1.0000,0.0000,0.0000,1.0000,46.3440,107.0717)" stroke="none" text-anchor="middle">1.06</text></g><g stroke-linejoin="miter" stroke-opacity="1.0" fill-opacity="1.0" font-size="27.806395901140274px" stroke="rgb(0,0,0)" stroke-width="2.178445523868172" fill="rgb(0,0,0)" stroke-linecap="butt" stroke-miterlimit="10.0"><text dominant-baseline="middle" transform="matrix(1.0000,0.0000,0.0000,1.0000,46.3440,135.0383)" stroke="none" text-anchor="middle">1.03</text></g><g stroke-linejoin="miter" stroke-opacity="1.0" fill-opacity="1.0" font-size="27.806395901140274px" stroke="rgb(0,0,0)" stroke-width="2.178445523868172" fill="rgb(0,0,0)" stroke-linecap="butt" stroke-miterlimit="10.0"><text dominant-baseline="middle" transform="matrix(1.0000,0.0000,0.0000,1.0000,46.3440,163.0049)" stroke="none" text-anchor="middle">1.00</text></g></svg>