<?xml version="1.0" encoding="UTF-8"?>
<!DOCTYPE svg PUBLIC "-//W3C//DTD SVG 1.1//EN"
    "http://www.w3.org/Graphics/SVG/1.1/DTD/svg11.dtd"><svg xmlns="http://www.w3.org/2000/svg" height="400.0000" stroke-opacity="1" viewBox="0 0 1268 400" font-size="1" width="1268.1233" xmlns:xlink="http://www.w3.org/1999/xlink" stroke="rgb(0,0,0)" version="1.1"><defs></defs><g stroke-linejoin="miter" stroke-opacity="1.0" fill-opacity="1.0" stroke="rgb(0,0,0)" stroke-width="0.0" fill="rgb(255,255,0)" stroke-linecap="butt" stroke-miterlimit="10.0"><path d="M 1268.1233,381.7798 c 0.0000,-10.0627 -8.1574,-18.2202 -18.2202 -18.2202c -10.0627,-0.0000 -18.2202,8.1574 -18.2202 18.2202c -0.0000,10.0627 8.1574,18.2202 18.2202 18.2202c 10.0627,0.0000 18.2202,-8.1574 18.2202 -18.2202Z"/></g><g stroke-linejoin="miter" stroke-opacity="1.0" fill-opacity="1.0" stroke="rgb(0,0,0)" stroke-width="0.0" fill="rgb(255,255,0)" stroke-linecap="butt" stroke-miterlimit="10.0"><path d="M 1249.9032,400.0000 l -0.0000,-36.4403 h -36.4403 l -0.0000,36.4403 Z"/></g><g stroke-linejoin="miter" stroke-opacity="1.0" fill-opacity="1.0" stroke="rgb(0,0,0)" stroke-width="0.0" fill="rgb(255,0,0)" stroke-linecap="butt" stroke-miterlimit="10.0"><path d="M 1213.4628,400.0000 l -0.0000,-36.4403 h -36.4403 l -0.0000,36.4403 Z"/></g><g stroke-linejoin="miter" stroke-opacity="1.0" fill-opacity="1.0" stroke="rgb(0,0,0)" stroke-width="0.0" fill="rgb(255,0,0)" stroke-linecap="butt" stroke-miterlimit="10.0"><path d="M 1195.2427,381.7798 c 0.0000,-10.0627 -8.1574,-18.2202 -18.2202 -18.2202c -10.0627,-0.0000 -18.2202,8.1574 -18.2202 18.2202c -0.0000,10.0627 8.1574,18.2202 18.2202 18.2202c 10.0627,0.0000 18.2202,-8.1574 18.2202 -18.2202Z"/></g><g stroke-linejoin="miter" stroke-opacity="1.0" fill-opacity="1.0" stroke="rgb(0,0,0)" stroke-width="0.0" fill="rgb(255,255,0)" stroke-linecap="butt" stroke-miterlimit="10.0"><path d="M 1136.9382,381.7798 c 0.0000,-10.0627 -8.1574,-18.2202 -18.2202 -18.2202c -10.0627,-0.0000 -18.2202,8.1574 -18.2202 18.2202c -0.0000,10.0627 8.1574,18.2202 18.2202 18.2202c 10.0627,0.0000 18.2202,-8.1574 18.2202 -18.2202Z"/></g><g stroke-linejoin="miter" stroke-opacity="1.0" fill-opacity="1.0" stroke="rgb(0,0,0)" stroke-width="0.0" fill="rgb(255,255,0)" stroke-linecap="butt" stroke-miterlimit="10.0"><path d="M 1118.7180,400.0000 l -0.0000,-36.4403 h -36.4403 l -0.0000,36.4403 Z"/></g><g stroke-linejoin="miter" stroke-opacity="1.0" fill-opacity="1.0" stroke="rgb(0,0,0)" stroke-width="0.0" fill="rgb(255,255,0)" stroke-linecap="butt" stroke-miterlimit="10.0"><path d="M 1082.2777,400.0000 l -0.0000,-36.4403 h -36.4403 l -0.0000,36.4403 Z"/></g><g stroke-linejoin="miter" stroke-opacity="1.0" fill-opacity="1.0" stroke="rgb(0,0,0)" stroke-width="0.0" fill="rgb(255,255,0)" stroke-linecap="butt" stroke-miterlimit="10.0"><path d="M 1064.0575,381.7798 c 0.0000,-10.0627 -8.1574,-18.2202 -18.2202 -18.2202c -10.0627,-0.0000 -18.2202,8.1574 -18.2202 18.2202c -0.0000,10.0627 8.1574,18.2202 18.2202 18.2202c 10.0627,0.0000 18.2202,-8.1574 18.2202 -18.2202Z"/></g><g stroke-linejoin="miter" stroke-opacity="1.0" fill-opacity="1.0" stroke="rgb(0,0,0)" stroke-width="0.0" fill="rgb(255,255,0)" stroke-linecap="butt" stroke-miterlimit="10.0"><path d="M 1005.7530,381.7798 c 0.0000,-10.0627 -8.1574,-18.2202 -18.2202 -18.2202c -10.0627,-0.0000 -18.2202,8.1574 -18.2202 18.2202c -0.0000,10.0627 8.1574,18.2202 18.2202 18.2202c 10.0627,0.0000 18.2202,-8.1574 18.2202 -18.2202Z"/></g><g stroke-linejoin="miter" stroke-opacity="1.0" fill-opacity="1.0" stroke="rgb(0,0,0)" stroke-width="0.0" fill="rgb(255,255,0)" stroke-linecap="butt" stroke-miterlimit="10.0"><path d="M 987.5328,400.0000 l -0.0000,-36.4403 h -36.4403 l -0.0000,36.4403 Z"/></g><g stroke-linejoin="miter" stroke-opacity="1.0" fill-opacity="1.0" stroke="rgb(0,0,0)" stroke-width="0.0" fill="rgb(0,0,255)" stroke-linecap="butt" stroke-miterlimit="10.0"><path d="M 951.0925,400.0000 l -0.0000,-36.4403 h -36.4403 l -0.0000,36.4403 Z"/></g><g stroke-linejoin="miter" stroke-opacity="1.0" fill-opacity="1.0" stroke="rgb(0,0,0)" stroke-width="0.0" fill="rgb(0,0,255)" stroke-linecap="butt" stroke-miterlimit="10.0"><path d="M 932.8723,381.7798 c 0.0000,-10.0627 -8.1574,-18.2202 -18.2202 -18.2202c -10.0627,-0.0000 -18.2202,8.1574 -18.2202 18.2202c -0.0000,10.0627 8.1574,18.2202 18.2202 18.2202c 10.0627,0.0000 18.2202,-8.1574 18.2202 -18.2202Z"/></g><g stroke-linejoin="miter" stroke-opacity="1.0" fill-opacity="1.0" stroke="rgb(0,0,0)" stroke-width="0.0" fill="rgb(0,0,255)" stroke-linecap="butt" stroke-miterlimit="10.0"><path d="M 874.5678,381.7798 c 0.0000,-10.0627 -8.1574,-18.2202 -18.2202 -18.2202c -10.0627,-0.0000 -18.2202,8.1574 -18.2202 18.2202c -0.0000,10.0627 8.1574,18.2202 18.2202 18.2202c 10.0627,0.0000 18.2202,-8.1574 18.2202 -18.2202Z"/></g><g stroke-linejoin="miter" stroke-opacity="1.0" fill-opacity="1.0" stroke="rgb(0,0,0)" stroke-width="0.0" fill="rgb(0,0,255)" stroke-linecap="butt" stroke-miterlimit="10.0"><path d="M 856.3477,400.0000 l -0.0000,-36.4403 h -36.4403 l -0.0000,36.4403 Z"/></g><g stroke-linejoin="miter" stroke-opacity="1.0" fill-opacity="1.0" stroke="rgb(0,0,0)" stroke-width="0.0" fill="rgb(255,255,0)" stroke-linecap="butt" stroke-miterlimit="10.0"><path d="M 819.9073,400.0000 l -0.0000,-36.4403 h -36.4403 l -0.0000,36.4403 Z"/></g><g stroke-linejoin="miter" stroke-opacity="1.0" fill-opacity="1.0" stroke="rgb(0,0,0)" stroke-width="0.0" fill="rgb(255,255,0)" stroke-linecap="butt" stroke-miterlimit="10.0"><path d="M 801.6872,381.7798 c 0.0000,-10.0627 -8.1574,-18.2202 -18.2202 -18.2202c -10.0627,-0.0000 -18.2202,8.1574 -18.2202 18.2202c -0.0000,10.0627 8.1574,18.2202 18.2202 18.2202c 10.0627,0.0000 18.2202,-8.1574 18.2202 -18.2202Z"/></g><g stroke-linejoin="miter" stroke-opacity="1.0" fill-opacity="1.0" stroke="rgb(0,0,0)" stroke-width="0.0" fill="rgb(255,0,0)" stroke-linecap="butt" stroke-miterlimit="10.0"><path d="M 743.3826,381.7798 c 0.0000,-10.0627 -8.1574,-18.2202 -18.2202 -18.2202c -10.0627,-0.0000 -18.2202,8.1574 -18.2202 18.2202c -0.0000,10.0627 8.1574,18.2202 18.2202 18.2202c 10.0627,0.0000 18.2202,-8.1574 18.2202 -18.2202Z"/></g><g stroke-linejoin="miter" stroke-opacity="1.0" fill-opacity="1.0" stroke="rgb(0,0,0)" stroke-width="0.0" fill="rgb(255,0,0)" stroke-linecap="butt" stroke-miterlimit="10.0"><path d="M 725.1625,400.0000 l -0.0000,-36.4403 h -36.4403 l -0.0000,36.4403 Z"/></g><g stroke-linejoin="miter" stroke-opacity="1.0" fill-opacity="1.0" stroke="rgb(0,0,0)" stroke-width="0.0" fill="rgb(255,0,0)" stroke-linecap="butt" stroke-miterlimit="10.0"><path d="M 688.7222,400.0000 l -0.0000,-36.4403 h -36.4403 l -0.0000,36.4403 Z"/></g><g stroke-linejoin="miter" stroke-opacity="1.0" fill-opacity="1.0" stroke="rgb(0,0,0)" stroke-width="0.0" fill="rgb(255,0,0)" stroke-linecap="butt" stroke-miterlimit="10.0"><path d="M 670.5020,381.7798 c 0.0000,-10.0627 -8.1574,-18.2202 -18.2202 -18.2202c -10.0627,-0.0000 -18.2202,8.1574 -18.2202 18.2202c -0.0000,10.0627 8.1574,18.2202 18.2202 18.2202c 10.0627,0.0000 18.2202,-8.1574 18.2202 -18.2202Z"/></g><g stroke-linejoin="miter" stroke-opacity="1.0" fill-opacity="1.0" stroke="rgb(0,0,0)" stroke-width="0.0" fill="rgb(255,0,0)" stroke-linecap="butt" stroke-miterlimit="10.0"><path d="M 612.1975,381.7798 c 0.0000,-10.0627 -8.1574,-18.2202 -18.2202 -18.2202c -10.0627,-0.0000 -18.2202,8.1574 -18.2202 18.2202c -0.0000,10.0627 8.1574,18.2202 18.2202 18.2202c 10.0627,0.0000 18.2202,-8.1574 18.2202 -18.2202Z"/></g><g stroke-linejoin="miter" stroke-opacity="1.0" fill-opacity="1.0" stroke="rgb(0,0,0)" stroke-width="0.0" fill="rgb(255,0,0)" stroke-linecap="butt" stroke-miterlimit="10.0"><path d="M 593.9773,400.0000 l -0.0000,-36.4403 h -36.4403 l -0.0000,36.4403 Z"/></g><g stroke-linejoin="miter" stroke-opacity="1.0" fill-opacity="1.0" stroke="rgb(0,0,0)" stroke-width="0.0" fill="rgb(255,255,0)" stroke-linecap="butt" stroke-miterlimit="10.0"><path d="M 557.5370,400.0000 l -0.0000,-36.4403 h -36.4403 l -0.0000,36.4403 Z"/></g><g stroke-linejoin="miter" stroke-opacity="1.0" fill-opacity="1.0" stroke="rgb(0,0,0)" stroke-width="0.0" fill="rgb(255,255,0)" stroke-linecap="butt" stroke-miterlimit="10.0"><path d="M 539.3168,381.7798 c 0.0000,-10.0627 -8.1574,-18.2202 -18.2202 -18.2202c -10.0627,-0.0000 -18.2202,8.1574 -18.2202 18.2202c -0.0000,10.0627 8.1574,18.2202 18.2202 18.2202c 10.0627,0.0000 18.2202,-8.1574 18.2202 -18.2202Z"/></g><g stroke-linejoin="miter" stroke-opacity="1.0" fill-opacity="1.0" stroke="rgb(0,0,0)" stroke-width="0.0" fill="rgb(0,0,255)" stroke-linecap="butt" stroke-miterlimit="10.0"><path d="M 481.0123,381.7798 c 0.0000,-10.0627 -8.1574,-18.2202 -18.2202 -18.2202c -10.0627,-0.0000 -18.2202,8.1574 -18.2202 18.2202c -0.0000,10.0627 8.1574,18.2202 18.2202 18.2202c 10.0627,0.0000 18.2202,-8.1574 18.2202 -18.2202Z"/></g><g stroke-linejoin="miter" stroke-opacity="1.0" fill-opacity="1.0" stroke="rgb(0,0,0)" stroke-width="0.0" fill="rgb(0,0,255)" stroke-linecap="butt" stroke-miterlimit="10.0"><path d="M 462.7921,400.0000 l -0.0000,-36.4403 h -36.4403 l -0.0000,36.4403 Z"/></g><g stroke-linejoin="miter" stroke-opacity="1.0" fill-opacity="1.0" stroke="rgb(0,0,0)" stroke-width="0.0" fill="rgb(255,0,0)" stroke-linecap="butt" stroke-miterlimit="10.0"><path d="M 426.3518,400.0000 l -0.0000,-36.4403 h -36.4403 l -0.0000,36.4403 Z"/></g><g stroke-linejoin="miter" stroke-opacity="1.0" fill-opacity="1.0" stroke="rgb(0,0,0)" stroke-width="0.0" fill="rgb(255,0,0)" stroke-linecap="butt" stroke-miterlimit="10.0"><path d="M 408.1316,381.7798 c 0.0000,-10.0627 -8.1574,-18.2202 -18.2202 -18.2202c -10.0627,-0.0000 -18.2202,8.1574 -18.2202 18.2202c -0.0000,10.0627 8.1574,18.2202 18.2202 18.2202c 10.0627,0.0000 18.2202,-8.1574 18.2202 -18.2202Z"/></g><g stroke-linejoin="miter" stroke-opacity="1.0" fill-opacity="1.0" stroke="rgb(0,0,0)" stroke-width="0.0" fill="rgb(255,0,0)" stroke-linecap="butt" stroke-miterlimit="10.0"><path d="M 349.8271,381.7798 c 0.0000,-10.0627 -8.1574,-18.2202 -18.2202 -18.2202c -10.0627,-0.0000 -18.2202,8.1574 -18.2202 18.2202c -0.0000,10.0627 8.1574,18.2202 18.2202 18.2202c 10.0627,0.0000 18.2202,-8.1574 18.2202 -18.2202Z"/></g><g stroke-linejoin="miter" stroke-opacity="1.0" fill-opacity="1.0" stroke="rgb(0,0,0)" stroke-width="0.0" fill="rgb(255,0,0)" stroke-linecap="butt" stroke-miterlimit="10.0"><path d="M 331.6070,400.0000 l -0.0000,-36.4403 h -36.4403 l -0.0000,36.4403 Z"/></g><g stroke-linejoin="miter" stroke-opacity="1.0" fill-opacity="1.0" stroke="rgb(0,0,0)" stroke-width="0.0" fill="rgb(0,0,255)" stroke-linecap="butt" stroke-miterlimit="10.0"><path d="M 295.1666,400.0000 l -0.0000,-36.4403 h -36.4403 l -0.0000,36.4403 Z"/></g><g stroke-linejoin="miter" stroke-opacity="1.0" fill-opacity="1.0" stroke="rgb(0,0,0)" stroke-width="0.0" fill="rgb(0,0,255)" stroke-linecap="butt" stroke-miterlimit="10.0"><path d="M 276.9465,381.7798 c 0.0000,-10.0627 -8.1574,-18.2202 -18.2202 -18.2202c -10.0627,-0.0000 -18.2202,8.1574 -18.2202 18.2202c -0.0000,10.0627 8.1574,18.2202 18.2202 18.2202c 10.0627,0.0000 18.2202,-8.1574 18.2202 -18.2202Z"/></g><g stroke-linejoin="miter" stroke-opacity="1.0" fill-opacity="1.0" stroke="rgb(0,0,0)" stroke-width="0.0" fill="rgb(0,0,255)" stroke-linecap="butt" stroke-miterlimit="10.0"><path d="M 218.6420,381.7798 c 0.0000,-10.0627 -8.1574,-18.2202 -18.2202 -18.2202c -10.0627,-0.0000 -18.2202,8.1574 -18.2202 18.2202c -0.0000,10.0627 8.1574,18.2202 18.2202 18.2202c 10.0627,0.0000 18.2202,-8.1574 18.2202 -18.2202Z"/></g><g stroke-linejoin="miter" stroke-opacity="1.0" fill-opacity="1.0" stroke="rgb(0,0,0)" stroke-width="0.0" fill="rgb(0,0,255)" stroke-linecap="butt" stroke-miterlimit="10.0"><path d="M 200.4218,400.0000 l -0.0000,-36.4403 h -36.4403 l -0.0000,36.4403 Z"/></g><g stroke-linejoin="miter" stroke-opacity="1.0" fill-opacity="1.0" stroke="rgb(0,0,0)" stroke-width="0.0" fill="rgb(0,0,255)" stroke-linecap="butt" stroke-miterlimit="10.0"><path d="M 163.9815,400.0000 l -0.0000,-36.4403 h -36.4403 l -0.0000,36.4403 Z"/></g><g stroke-linejoin="miter" stroke-opacity="1.0" fill-opacity="1.0" stroke="rgb(0,0,0)" stroke-width="0.0" fill="rgb(0,0,255)" stroke-linecap="butt" stroke-miterlimit="10.0"><path d="M 145.7613,381.7798 c 0.0000,-10.0627 -8.1574,-18.2202 -18.2202 -18.2202c -10.0627,-0.0000 -18.2202,8.1574 -18.2202 18.2202c -0.0000,10.0627 8.1574,18.2202 18.2202 18.2202c 10.0627,0.0000 18.2202,-8.1574 18.2202 -18.2202Z"/></g><g stroke-linejoin="miter" stroke-opacity="1.0" fill-opacity="1.0" font-size="32.79629319867346px" stroke="rgb(0,0,0)" stroke-width="2.848857552932121" fill="rgb(0,0,0)" stroke-linecap="butt" stroke-miterlimit="10.0"><text dominant-baseline="middle" transform="matrix(1.0000,0.0000,0.0000,1.0000,1213.4628,358.0936)" stroke="none" text-anchor="middle">1.13</text></g><g stroke-linejoin="miter" stroke-opacity="1.0" fill-opacity="1.0" font-size="32.79629319867346px" stroke="rgb(0,0,0)" stroke-width="2.848857552932121" fill="rgb(0,0,0)" stroke-linecap="butt" stroke-miterlimit="10.0"><text dominant-baseline="middle" transform="matrix(1.0000,0.0000,0.0000,1.0000,1082.2777,358.0936)" stroke="none" text-anchor="middle">1.13</text></g><g stroke-linejoin="miter" stroke-opacity="1.0" fill-opacity="1.0" font-size="32.79629319867346px" stroke="rgb(0,0,0)" stroke-width="2.848857552932121" fill="rgb(0,0,0)" stroke-linecap="butt" stroke-miterlimit="10.0"><text dominant-baseline="middle" transform="matrix(1.0000,0.0000,0.0000,1.0000,951.0925,358.0936)" stroke="none" text-anchor="middle">1.12</text></g><g stroke-linejoin="miter" stroke-opacity="1.0" fill-opacity="1.0" font-size="32.79629319867346px" stroke="rgb(0,0,0)" stroke-width="2.848857552932121" fill="rgb(0,0,0)" stroke-linecap="butt" stroke-miterlimit="10.0"><text dominant-baseline="middle" transform="matrix(1.0000,0.0000,0.0000,1.0000,819.9073,358.0936)" stroke="none" text-anchor="middle">0.94</text></g><g stroke-linejoin="miter" stroke-opacity="1.0" fill-opacity="1.0" font-size="32.79629319867346px" stroke="rgb(0,0,0)" stroke-width="2.848857552932121" fill="rgb(0,0,0)" stroke-linecap="butt" stroke-miterlimit="10.0"><text dominant-baseline="middle" transform="matrix(1.0000,0.0000,0.0000,1.0000,688.7222,358.0936)" stroke="none" text-anchor="middle">0.94</text></g><g stroke-linejoin="miter" stroke-opacity="1.0" fill-opacity="1.0" font-size="32.79629319867346px" stroke="rgb(0,0,0)" stroke-width="2.848857552932121" fill="rgb(0,0,0)" stroke-linecap="butt" stroke-miterlimit="10.0"><text dominant-baseline="middle" transform="matrix(1.0000,0.0000,0.0000,1.0000,557.5370,358.0936)" stroke="none" text-anchor="middle">0.94</text></g><g stroke-linejoin="miter" stroke-opacity="1.0" fill-opacity="1.0" font-size="32.79629319867346px" stroke="rgb(0,0,0)" stroke-width="2.848857552932121" fill="rgb(0,0,0)" stroke-linecap="butt" stroke-miterlimit="10.0"><text dominant-baseline="middle" transform="matrix(1.0000,0.0000,0.0000,1.0000,426.3518,358.0936)" stroke="none" text-anchor="middle">0.93</text></g><g stroke-linejoin="miter" stroke-opacity="1.0" fill-opacity="1.0" font-size="32.79629319867346px" stroke="rgb(0,0,0)" stroke-width="2.848857552932121" fill="rgb(0,0,0)" stroke-linecap="butt" stroke-miterlimit="10.0"><text dominant-baseline="middle" transform="matrix(1.0000,0.0000,0.0000,1.0000,295.1666,358.0936)" stroke="none" text-anchor="middle">0.93</text></g><g stroke-linejoin="miter" stroke-opacity="1.0" fill-opacity="1.0" font-size="32.79629319867346px" stroke="rgb(0,0,0)" stroke-width="2.848857552932121" fill="rgb(0,0,0)" stroke-linecap="butt" stroke-miterlimit="10.0"><text dominant-baseline="middle" transform="matrix(1.0000,0.0000,0.0000,1.0000,163.9815,358.0936)" stroke="none" text-anchor="middle">0.93</text></g><g stroke-linejoin="miter" stroke-opacity="1.0" fill-opacity="0.0" stroke="rgb(128,128,128)" stroke-width="2.848857552932121" fill="rgb(0,0,0)" stroke-linecap="butt" stroke-miterlimit="10.0"><path d="M 109.3210,325.2973 h 1158.8024 "/></g><g stroke-linejoin="miter" stroke-opacity="1.0" fill-opacity="0.0" stroke="rgb(128,128,128)" stroke-width="2.848857552932121" fill="rgb(0,0,0)" stroke-linecap="butt" stroke-miterlimit="10.0"><path d="M 109.3210,292.1899 h 1158.8024 "/></g><g stroke-linejoin="miter" stroke-opacity="1.0" fill-opacity="0.0" stroke="rgb(128,128,128)" stroke-width="2.848857552932121" fill="rgb(0,0,0)" stroke-linecap="butt" stroke-miterlimit="10.0"><path d="M 109.3210,259.0824 h 1158.8024 "/></g><g stroke-linejoin="miter" stroke-opacity="1.0" fill-opacity="0.0" stroke="rgb(128,128,128)" stroke-width="2.848857552932121" fill="rgb(0,0,0)" stroke-linecap="butt" stroke-miterlimit="10.0"><path d="M 109.3210,225.9750 h 1158.8024 "/></g><g stroke-linejoin="miter" stroke-opacity="1.0" fill-opacity="0.0" stroke="rgb(128,128,128)" stroke-width="2.848857552932121" fill="rgb(0,0,0)" stroke-linecap="butt" stroke-miterlimit="10.0"><path d="M 109.3210,27.3302 h 1158.8024 "/></g><g stroke-linejoin="miter" stroke-opacity="1.0" fill-opacity="0.0" stroke="rgb(128,128,128)" stroke-width="2.848857552932121" fill="rgb(0,0,0)" stroke-linecap="butt" stroke-miterlimit="10.0"><path d="M 109.3210,60.4377 h 1158.8024 "/></g><g stroke-linejoin="miter" stroke-opacity="1.0" fill-opacity="0.0" stroke="rgb(128,128,128)" stroke-width="2.848857552932121" fill="rgb(0,0,0)" stroke-linecap="butt" stroke-miterlimit="10.0"><path d="M 109.3210,93.5452 h 1158.8024 "/></g><g stroke-linejoin="miter" stroke-opacity="1.0" fill-opacity="0.0" stroke="rgb(128,128,128)" stroke-width="2.848857552932121" fill="rgb(0,0,0)" stroke-linecap="butt" stroke-miterlimit="10.0"><path d="M 109.3210,126.6526 h 1158.8024 "/></g><g stroke-linejoin="miter" stroke-opacity="1.0" fill-opacity="0.0" stroke="rgb(128,128,128)" stroke-width="2.848857552932121" fill="rgb(0,0,0)" stroke-linecap="butt" stroke-miterlimit="10.0"><path d="M 109.3210,159.7601 h 1158.8024 "/></g><g stroke-linejoin="miter" stroke-opacity="1.0" fill-opacity="0.0" stroke="rgb(128,128,128)" stroke-width="2.848857552932121" fill="rgb(0,0,0)" stroke-linecap="butt" stroke-miterlimit="10.0"><path d="M 109.3210,192.8675 h 1158.8024 "/></g><g stroke-linejoin="miter" stroke-opacity="1.0" fill-opacity="1.0" stroke="rgb(0,0,0)" stroke-width="2.848857552932121" fill="rgb(255,255,255)" stroke-linecap="butt" stroke-miterlimit="10.0"><path d="M 1268.1233,192.8675 l -0.0000,-140.4298 h -109.3210 l -0.0000,140.4298 Z"/></g><g stroke-linejoin="miter" stroke-opacity="1.0" fill-opacity="1.0" stroke="rgb(0,0,0)" stroke-width="2.848857552932121" fill="rgb(255,255,255)" stroke-linecap="butt" stroke-miterlimit="10.0"><path d="M 1136.9382,192.8675 l -0.0000,-139.2075 h -109.3210 l -0.0000,139.2075 Z"/></g><g stroke-linejoin="miter" stroke-opacity="1.0" fill-opacity="1.0" stroke="rgb(0,0,0)" stroke-width="2.848857552932121" fill="rgb(255,255,255)" stroke-linecap="butt" stroke-miterlimit="10.0"><path d="M 1005.7530,192.8675 l -0.0000,-134.4212 h -109.3210 l -0.0000,134.4212 Z"/></g><g stroke-linejoin="miter" stroke-opacity="1.0" fill-opacity="1.0" stroke="rgb(0,0,0)" stroke-width="2.848857552932121" fill="rgb(255,255,255)" stroke-linecap="butt" stroke-miterlimit="10.0"><path d="M 874.5678,192.8675 l -0.0000,71.4122 h -109.3210 l -0.0000,-71.4122 Z"/></g><g stroke-linejoin="miter" stroke-opacity="1.0" fill-opacity="1.0" stroke="rgb(0,0,0)" stroke-width="2.848857552932121" fill="rgb(255,255,255)" stroke-linecap="butt" stroke-miterlimit="10.0"><path d="M 743.3826,192.8675 l -0.0000,73.6566 h -109.3210 l -0.0000,-73.6566 Z"/></g><g stroke-linejoin="miter" stroke-opacity="1.0" fill-opacity="1.0" stroke="rgb(0,0,0)" stroke-width="2.848857552932121" fill="rgb(255,255,255)" stroke-linecap="butt" stroke-miterlimit="10.0"><path d="M 612.1975,192.8675 l -0.0000,75.0064 h -109.3210 l -0.0000,-75.0064 Z"/></g><g stroke-linejoin="miter" stroke-opacity="1.0" fill-opacity="1.0" stroke="rgb(0,0,0)" stroke-width="2.848857552932121" fill="rgb(255,255,255)" stroke-linecap="butt" stroke-miterlimit="10.0"><path d="M 481.0123,192.8675 l -0.0000,77.2341 h -109.3210 l -0.0000,-77.2341 Z"/></g><g stroke-linejoin="miter" stroke-opacity="1.0" fill-opacity="1.0" stroke="rgb(0,0,0)" stroke-width="2.848857552932121" fill="rgb(255,255,255)" stroke-linecap="butt" stroke-miterlimit="10.0"><path d="M 349.8271,192.8675 l -0.0000,78.6962 h -109.3210 l -0.0000,-78.6962 Z"/></g><g stroke-linejoin="miter" stroke-opacity="1.0" fill-opacity="1.0" stroke="rgb(0,0,0)" stroke-width="2.848857552932121" fill="rgb(255,255,255)" stroke-linecap="butt" stroke-miterlimit="10.0"><path d="M 218.6420,192.8675 l -0.0000,78.7199 h -109.3210 l -0.0000,-78.7199 Z"/></g><g stroke-linejoin="miter" stroke-opacity="1.0" fill-opacity="1.0" font-size="32.79629319867346px" stroke="rgb(0,0,0)" stroke-width="2.848857552932121" fill="rgb(0,0,0)" stroke-linecap="butt" stroke-miterlimit="10.0"><text dominant-baseline="middle" transform="matrix(1.0000,0.0000,0.0000,1.0000,54.6605,325.2973)" stroke="none" text-anchor="middle">0.89</text></g><g stroke-linejoin="miter" stroke-opacity="1.0" fill-opacity="1.0" font-size="32.79629319867346px" stroke="rgb(0,0,0)" stroke-width="2.848857552932121" fill="rgb(0,0,0)" stroke-linecap="butt" stroke-miterlimit="10.0"><text dominant-baseline="middle" transform="matrix(1.0000,0.0000,0.0000,1.0000,54.6605,292.1899)" stroke="none" text-anchor="middle">0.92</text></g><g stroke-linejoin="miter" stroke-opacity="1.0" fill-opacity="1.0" font-size="32.79629319867346px" stroke="rgb(0,0,0)" stroke-width="2.848857552932121" fill="rgb(0,0,0)" stroke-linecap="butt" stroke-miterlimit="10.0"><text dominant-baseline="middle" transform="matrix(1.0000,0.0000,0.0000,1.0000,54.6605,259.0824)" stroke="none" text-anchor="middle">0.94</text></g><g stroke-linejoin="miter" stroke-opacity="1.0" fill-opacity="1.0" font-size="32.79629319867346px" stroke="rgb(0,0,0)" stroke-width="2.848857552932121" fill="rgb(0,0,0)" stroke-linecap="butt" stroke-miterlimit="10.0"><text dominant-baseline="middle" transform="matrix(1.0000,0.0000,0.0000,1.0000,54.6605,225.9750)" stroke="none" text-anchor="middle">0.97</text></g><g stroke-linejoin="miter" stroke-opacity="1.0" fill-opacity="1.0" font-size="32.79629319867346px" stroke="rgb(0,0,0)" stroke-width="2.848857552932121" fill="rgb(0,0,0)" stroke-linecap="butt" stroke-miterlimit="10.0"><text dominant-baseline="middle" transform="matrix(1.0000,0.0000,0.0000,1.0000,54.6605,27.3302)" stroke="none" text-anchor="middle">1.16</text></g><g stroke-linejoin="miter" stroke-opacity="1.0" fill-opacity="1.0" font-size="32.79629319867346px" stroke="rgb(0,0,0)" stroke-width="2.848857552932121" fill="rgb(0,0,0)" stroke-linecap="butt" stroke-miterlimit="10.0"><text dominant-baseline="middle" transform="matrix(1.0000,0.0000,0.0000,1.0000,54.6605,60.4377)" stroke="none" text-anchor="middle">1.12</text></g><g stroke-linejoin="miter" stroke-opacity="1.0" fill-opacity="1.0" font-size="32.79629319867346px" stroke="rgb(0,0,0)" stroke-width="2.848857552932121" fill="rgb(0,0,0)" stroke-linecap="butt" stroke-miterlimit="10.0"><text dominant-baseline="middle" transform="matrix(1.0000,0.0000,0.0000,1.0000,54.6605,93.5452)" stroke="none" text-anchor="middle">1.09</text></g><g stroke-linejoin="miter" stroke-opacity="1.0" fill-opacity="1.0" font-size="32.79629319867346px" stroke="rgb(0,0,0)" stroke-width="2.848857552932121" fill="rgb(0,0,0)" stroke-linecap="butt" stroke-miterlimit="10.0"><text dominant-baseline="middle" transform="matrix(1.0000,0.0000,0.0000,1.0000,54.6605,126.6526)" stroke="none" text-anchor="middle">1.06</text></g><g stroke-linejoin="miter" stroke-opacity="1.0" fill-opacity="1.0" font-size="32.79629319867346px" stroke="rgb(0,0,0)" stroke-width="2.848857552932121" fill="rgb(0,0,0)" stroke-linecap="butt" stroke-miterlimit="10.0"><text dominant-baseline="middle" transform="matrix(1.0000,0.0000,0.0000,1.0000,54.6605,159.7601)" stroke="none" text-anchor="middle">1.03</text></g><g stroke-linejoin="miter" stroke-opacity="1.0" fill-opacity="1.0" font-size="32.79629319867346px" stroke="rgb(0,0,0)" stroke-width="2.848857552932121" fill="rgb(0,0,0)" stroke-linecap="butt" stroke-miterlimit="10.0"><text dominant-baseline="middle" transform="matrix(1.0000,0.0000,0.0000,1.0000,54.6605,192.8675)" stroke="none" text-anchor="middle">1.00</text></g></svg>